<svg width="20" height="20" viewBox="0 0 20 20" xmlns="http://www.w3.org/2000/svg">
  <path d="M19.559 9.557h.004a.436.436 0 0 0 .435-.476A10.026 10.026 0 0 0 10.921 0a.437.437 0 0 0-.476.44c.076 6.408.921 9.027 9.114 9.116Zm0 .886c-8.193.09-9.038 2.707-9.114 9.115a.437.437 0 0 0 .477.44 10.025 10.025 0 0 0 9.076-9.08.437.437 0 0 0-.44-.475ZM9.049.003A10.03 10.03 0 0 0 .003 9.083a.436.436 0 0 0 .435.476h.005C8.608 9.464 9.451 6.847 9.528.443a.438.438 0 0 0-.478-.44ZM.443 10.444c-.136-.016-.243.049-.326.14a.438.438 0 0 0-.114.335 10.03 10.03 0 0 0 9.089 9.08.437.437 0 0 0 .436-.442c-.077-6.403-.92-9.02-9.085-9.114Z"/>
</svg>
